<svg xmlns="http://www.w3.org/2000/svg" width="25" height="25" viewBox="0 0 25 25" fill="none">
<g clip-path="url(#clip0_703_756)">
<path d="M20.4443 0.287598H4.44434C3.38347 0.287598 2.36605 0.709025 1.61591 1.45917C0.865763 2.20932 0.444336 3.22673 0.444336 4.2876L0.444336 20.2876C0.444336 21.3485 0.865763 22.3659 1.61591 23.116C2.36605 23.8662 3.38347 24.2876 4.44434 24.2876H20.4443C21.5052 24.2876 22.5226 23.8662 23.2728 23.116C24.0229 22.3659 24.4443 21.3485 24.4443 20.2876V4.2876C24.4443 3.22673 24.0229 2.20932 23.2728 1.45917C22.5226 0.709025 21.5052 0.287598 20.4443 0.287598V0.287598ZM22.4443 20.2876C22.4443 20.818 22.2336 21.3267 21.8585 21.7018C21.4835 22.0769 20.9748 22.2876 20.4443 22.2876H4.44434C3.9139 22.2876 3.40519 22.0769 3.03012 21.7018C2.65505 21.3267 2.44434 20.818 2.44434 20.2876V4.2876C2.44434 3.75716 2.65505 3.24846 3.03012 2.87338C3.40519 2.49831 3.9139 2.2876 4.44434 2.2876H20.4443C20.9748 2.2876 21.4835 2.49831 21.8585 2.87338C22.2336 3.24846 22.4443 3.75716 22.4443 4.2876V20.2876Z" fill="#A18CE8"/>
<path d="M12.4443 6.2876C11.2577 6.2876 10.0976 6.63949 9.11092 7.29878C8.12422 7.95807 7.35519 8.89514 6.90106 9.9915C6.44694 11.0879 6.32812 12.2943 6.55963 13.4581C6.79114 14.622 7.36258 15.6911 8.2017 16.5302C9.04081 17.3694 10.1099 17.9408 11.2738 18.1723C12.4377 18.4038 13.6441 18.285 14.7404 17.8309C15.8368 17.3767 16.7739 16.6077 17.4332 15.621C18.0924 14.6343 18.4443 13.4743 18.4443 12.2876C18.4443 10.6963 17.8122 9.17018 16.687 8.04496C15.5618 6.91974 14.0356 6.2876 12.4443 6.2876ZM12.4443 16.2876C11.6532 16.2876 10.8799 16.053 10.2221 15.6135C9.56426 15.174 9.05157 14.5492 8.74882 13.8183C8.44607 13.0874 8.36686 12.2832 8.5212 11.5072C8.67554 10.7313 9.0565 10.0186 9.61591 9.45917C10.1753 8.89976 10.8881 8.5188 11.664 8.36446C12.4399 8.21012 13.2442 8.28933 13.9751 8.59208C14.706 8.89483 15.3307 9.40752 15.7702 10.0653C16.2097 10.7231 16.4443 11.4965 16.4443 12.2876C16.4443 13.3485 16.0229 14.3659 15.2728 15.116C14.5226 15.8662 13.5052 16.2876 12.4443 16.2876Z" fill="#A18CE8"/>
<path d="M18.9443 7.2876C19.7728 7.2876 20.4443 6.61602 20.4443 5.7876C20.4443 4.95917 19.7728 4.2876 18.9443 4.2876C18.1159 4.2876 17.4443 4.95917 17.4443 5.7876C17.4443 6.61602 18.1159 7.2876 18.9443 7.2876Z" fill="#A18CE8"/>
</g>
<defs>
<clipPath id="clip0_703_756">
<rect width="24" height="24" fill="white" transform="translate(0.444336 0.287598)"/>
</clipPath>
</defs>
</svg>