<svg xmlns="http://www.w3.org/2000/svg" width="25" height="25" viewBox="0 0 25 25" fill="none">
<g clip-path="url(#clip0_703_762)">
<path d="M20.5332 0.609375H4.5332C3.47234 0.609375 2.45492 1.0308 1.70478 1.78095C0.954631 2.53109 0.533203 3.54851 0.533203 4.60938L0.533203 20.6094C0.533203 21.6702 0.954631 22.6877 1.70478 23.4378C2.45492 24.1879 3.47234 24.6094 4.5332 24.6094H20.5332C21.5941 24.6094 22.6115 24.1879 23.3616 23.4378C24.1118 22.6877 24.5332 21.6702 24.5332 20.6094V4.60938C24.5332 3.54851 24.1118 2.53109 23.3616 1.78095C22.6115 1.0308 21.5941 0.609375 20.5332 0.609375V0.609375ZM22.5332 20.6094C22.5332 21.1398 22.3225 21.6485 21.9474 22.0236C21.5723 22.3987 21.0636 22.6094 20.5332 22.6094H4.5332C4.00277 22.6094 3.49406 22.3987 3.11899 22.0236C2.74392 21.6485 2.5332 21.1398 2.5332 20.6094V4.60938C2.5332 4.07894 2.74392 3.57023 3.11899 3.19516C3.49406 2.82009 4.00277 2.60938 4.5332 2.60938H20.5332C21.0636 2.60938 21.5723 2.82009 21.9474 3.19516C22.3225 3.57023 22.5332 4.07894 22.5332 4.60938V20.6094Z" fill="#FF96A3"/>
<path d="M12.5332 6.60938C11.3465 6.60938 10.1865 6.96127 9.19978 7.62056C8.21309 8.27985 7.44405 9.21692 6.98993 10.3133C6.5358 11.4096 6.41698 12.616 6.64849 13.7799C6.88001 14.9438 7.45145 16.0129 8.29057 16.852C9.12968 17.6911 10.1988 18.2626 11.3627 18.4941C12.5266 18.7256 13.733 18.6068 14.8293 18.1527C15.9257 17.6985 16.8627 16.9295 17.522 15.9428C18.1813 14.9561 18.5332 13.7961 18.5332 12.6094C18.5332 11.0181 17.9011 9.49195 16.7758 8.36673C15.6506 7.24152 14.1245 6.60938 12.5332 6.60938ZM12.5332 16.6094C11.7421 16.6094 10.9687 16.3748 10.3109 15.9353C9.65313 15.4957 9.14044 14.871 8.83769 14.1401C8.53494 13.4092 8.45572 12.6049 8.61006 11.829C8.76441 11.0531 9.14537 10.3404 9.70478 9.78095C10.2642 9.22154 10.9769 8.84057 11.7528 8.68623C12.5288 8.53189 13.333 8.61111 14.0639 8.91386C14.7948 9.21661 15.4196 9.7293 15.8591 10.3871C16.2986 11.0449 16.5332 11.8182 16.5332 12.6094C16.5332 13.6702 16.1118 14.6877 15.3616 15.4378C14.6115 16.1879 13.5941 16.6094 12.5332 16.6094Z" fill="#FF96A3"/>
<path d="M19.0332 7.60938C19.8616 7.60938 20.5332 6.9378 20.5332 6.10938C20.5332 5.28095 19.8616 4.60938 19.0332 4.60938C18.2048 4.60938 17.5332 5.28095 17.5332 6.10938C17.5332 6.9378 18.2048 7.60938 19.0332 7.60938Z" fill="#FF96A3"/>
</g>
<defs>
<clipPath id="clip0_703_762">
<rect width="24" height="24" fill="white" transform="translate(0.533203 0.609375)"/>
</clipPath>
</defs>
</svg>